<svg xmlns="http://www.w3.org/2000/svg" version="1.1" xmlns:xlink="http://www.w3.org/1999/xlink" xmlns:svgjs="http://svgjs.dev/svgjs" width="1920" height="1080" preserveAspectRatio="none" viewBox="0 0 1920 1080"><g mask="url(&quot;#SvgjsMask1138&quot;)" fill="none"><path d="M1224.669,433.356C1276.428,429.247,1303.085,377.297,1329.267,332.459C1355.797,287.025,1390.665,236.903,1366.745,190.042C1341.534,140.652,1280.121,127.613,1224.669,127.548C1169.074,127.482,1111.148,142.358,1082.01,189.706C1051.662,239.021,1057.459,301.746,1086.717,351.716C1115.653,401.137,1167.58,437.888,1224.669,433.356" fill="rgba(147, 197, 253, 1)" class="triangle-float1"></path><path d="M1781.261,1085.49C1850.808,1086.892,1929.155,1075.479,1962.543,1014.454C1995.16,954.838,1958.177,886.048,1921.773,828.666C1888.77,776.645,1842.772,732.137,1781.261,728.707C1713.661,724.938,1645.822,753.434,1610.707,811.321C1574.376,871.214,1575.208,947.911,1612.21,1007.392C1647.352,1063.883,1714.745,1084.149,1781.261,1085.49" fill="rgba(147, 197, 253, 1)" class="triangle-float3"></path><path d="M1357.516,152.439C1401.226,155.375,1450.768,155.405,1475.574,119.296C1502.84,79.606,1498.189,25.493,1472.86,-15.46C1448.754,-54.436,1403.317,-73.152,1357.516,-71.585C1314.467,-70.112,1275.214,-46.086,1255.074,-8.01C1236.122,27.82,1242.254,70.924,1264.066,105.088C1284.207,136.635,1320.172,149.93,1357.516,152.439" fill="rgba(147, 197, 253, 1)" class="triangle-float1"></path><path d="M352.993,769.157C461.72,770.643,566.036,715.012,618.017,619.504C668.015,527.64,649.408,416.011,593.2,327.809C541.282,246.339,449.556,200.702,352.993,203.629C261.384,206.405,184.948,263.69,136.748,341.643C85.41,424.671,56.164,525.32,100.225,612.428C148.185,707.244,246.747,767.705,352.993,769.157" fill="rgba(147, 197, 253, 1)" class="triangle-float2"></path><path d="M668.785,1235.452C742.211,1238.274,823.558,1225.357,860.929,1162.09C898.735,1098.087,874.754,1017.935,833.989,955.775C797.438,900.039,735.428,868.026,668.785,869.097C604.039,870.138,545.944,905.475,512.53,960.942C477.93,1018.377,467.453,1089.971,500.623,1148.244C534.102,1207.06,601.158,1232.853,668.785,1235.452" fill="rgba(147, 197, 253, 1)" class="triangle-float2"></path></g><defs><mask id="SvgjsMask1138"><rect width="1920" height="1080" fill="#ffffff"></rect></mask><style>
                @keyframes float1 {
                    0%{transform: translate(0, 0)}
                    50%{transform: translate(-10px, 0)}
                    100%{transform: translate(0, 0)}
                }

                .triangle-float1 {
                    animation: float1 5s infinite;
                }

                @keyframes float2 {
                    0%{transform: translate(0, 0)}
                    50%{transform: translate(-5px, -5px)}
                    100%{transform: translate(0, 0)}
                }

                .triangle-float2 {
                    animation: float2 4s infinite;
                }

                @keyframes float3 {
                    0%{transform: translate(0, 0)}
                    50%{transform: translate(0, -10px)}
                    100%{transform: translate(0, 0)}
                }

                .triangle-float3 {
                    animation: float3 6s infinite;
                }
            </style></defs></svg>